<?xml version="1.0" encoding="utf-8"?>
<svg width="1922px" height="411px" viewBox="0 0 1922 411" version="1.1" xmlns:xlink="http://www.w3.org/1999/xlink" xmlns="http://www.w3.org/2000/svg">
  <defs>
    <path d="M0 0L1922 0L1922 411L0 411L0 0Z" id="path_1" />
    <clipPath id="mask_1">
      <use xlink:href="#path_1" />
    </clipPath>
  </defs>
  <g id="prospeneo-logo">
    <path d="M0 0L1922 0L1922 411L0 411L0 0Z" id="Background" fill="none" fill-rule="evenodd" stroke="none" />
    <g clip-path="url(#mask_1)">
      <g id="Group" transform="translate(1.9248657 2.0199738)">
        <g id="Group">
          <path d="M9.45166 55.0883C-3.15056 42.4861 -3.15056 22.0539 9.45166 9.45168C22.0539 -3.15056 42.4861 -3.15056 55.0883 9.45166C67.6906 22.0539 67.6906 42.4861 55.0883 55.0883C42.4861 67.6906 22.0539 67.6906 9.45166 55.0883Z" transform="translate(126.712 133.39601)" id="Circle" fill="#FFFFFF" fill-rule="evenodd" stroke="none" />
          <path d="M83.245 166.29C83.2495 154.578 85.8556 143.012 90.875 132.43L90.875 132.43L90.995 132.19C92.1672 129.736 93.4621 127.343 94.875 125.02L95.135 124.54C86.075 96.54 87.015 95.82 89.705 93.54L107.175 79.29L109.175 79.52C111.545 79.78 119.945 84.2 134.175 92.52L142.685 89.98C155.575 63.58 156.765 63.72 159.865 64.07L180.395 66.4C183.525 66.75 184.605 66.87 192.045 95.48L199.815 99.86C223.185 91.86 225.815 92.14 226.735 92.24L228.415 92.43L229.715 93.88L242.605 110.47C244.605 113.04 245.225 113.93 230.755 139.68L233.145 148.34C258.835 161.41 258.705 162.58 258.335 165.89L255.945 186.97C255.575 190.24 255.415 191.4 227.945 199.19C226.615 202.122 225.102 204.968 223.415 207.71C232.225 235.07 231.355 235.84 228.855 237.94L211.125 252.29L209.125 252.07C206.785 251.81 198.625 247.51 184.805 239.43C163.77 247.319 140.282 245.153 121.045 233.55C164.265 284.1 227.495 328.21 235.185 333.55C276.415 285.1 318.805 218.84 318.265 150.07C316.585 31.97 221.265 2.07517e-05 159.115 2.07517e-05C96.965 2.07517e-05 1.69499 31.96 0.00498676 150.06C-0.995013 278.93 148.725 399.06 159.155 409.48C163.845 404.79 196.705 377.88 231.355 338.01C150.925 279.26 114.355 237.94 97.655 211.83C94.2239 206.99 91.3523 201.777 89.095 196.29C83.425 182.77 83.615 176.78 83.615 176.78L83.245 166.29L83.245 166.29Z" id="Shape" fill="#FFFFFF" fill-rule="evenodd" stroke="none" />
        </g>
        <g id="Group" transform="translate(439.805 69.37807)">
          <path d="M0 176.71L0 2.71001L41.35 2.71001L45.35 25.3L47.91 25.3C52.79 16.6333 59.26 10.3 67.32 6.30002C75.5874 2.26485 84.6809 0.210587 93.88 0.300003C96.43 0.300003 98.9401 0.410004 101.44 0.62001C103.658 0.792023 105.863 1.10938 108.04 1.57001L108.04 47.38C105.373 46.96 102.563 46.6267 99.61 46.38C96.61 46.16 93.72 46.06 90.86 46.06C85.8051 46.0714 80.7695 46.6858 75.86 47.89C70.9042 49.0753 66.1382 50.9467 61.7 53.45C57.4847 55.7937 53.7386 58.8957 50.65 62.6L50.65 176.71L0 176.71L0 176.71ZM195.96 180.05C178.567 180.05 163.567 176.737 150.96 170.11C138.353 163.483 128.57 153.513 121.61 140.2C114.657 126.867 111.183 110.2 111.19 90.2C111.19 70.0533 114.557 53.3 121.29 39.94C128.023 26.58 137.69 16.58 150.29 9.94C162.91 3.32001 178.127 0.00668335 195.94 0C213.653 0 228.87 3.33334 241.59 10C254.237 16.6143 264.408 27.1366 270.59 40C277.217 53.3 280.53 69.9667 280.53 90C280.53 110.033 277.117 126.737 270.29 140.11C263.443 153.443 253.687 163.443 241.02 170.11C228.353 176.777 213.333 180.09 195.96 180.05L195.96 180.05ZM195.96 141.72C203.06 141.72 209.13 140.153 214.17 137.02C219.21 133.887 223.057 128.587 225.71 121.12C228.377 113.64 229.71 103.38 229.71 90.34C229.71 77.08 228.377 66.66 225.71 59.08C223.043 51.5 219.197 46.1467 214.17 43.02C209.143 39.8867 203.073 38.3233 195.96 38.33C188.847 38.3367 182.777 39.8734 177.75 42.94C172.71 46.0133 168.867 51.3133 166.22 58.84C163.573 66.3667 162.24 76.7 162.22 89.84C162.22 102.987 163.553 113.32 166.22 120.84C168.887 128.36 172.73 133.713 177.75 136.9C182.783 140.12 188.853 141.727 195.96 141.72L195.96 141.72L195.96 141.72ZM353.91 180.05C344.122 180.067 334.343 179.429 324.64 178.14C315.691 176.962 306.857 175.035 298.23 172.38L298.23 135.38C316.085 140.438 334.552 143.009 353.11 143.02C364.67 143.02 372.783 141.48 377.45 138.4C382.117 135.32 384.45 131.133 384.45 125.84C384.45 121.6 383.28 118.34 380.94 116.06C378.6 113.78 374.467 112.057 368.54 110.89L340.54 105.8C324.113 102.72 312.187 97.0534 304.76 88.8C297.333 80.5467 293.62 69.5167 293.62 55.71C293.62 38.9633 300.327 25.4967 313.74 15.31C327.153 5.12335 347.753 0.0333405 375.54 0.039978C383.804 0.0350494 392.062 0.512527 400.27 1.47C407.592 2.2869 414.847 3.62361 421.98 5.47L421.98 42.69C414.899 40.8075 407.699 39.4011 400.43 38.48C392.651 37.4627 384.815 36.9549 376.97 36.96C367.323 36.96 359.9 37.7833 354.7 39.43C349.5 41.0767 345.87 43.2267 343.81 45.88C341.846 48.2866 340.751 51.2845 340.7 54.39C340.569 57.7661 341.835 61.0469 344.2 63.46C346.54 65.7867 350.57 67.5367 356.29 68.71L384.6 73.95C400.093 76.8167 411.787 82.0667 419.68 89.7C427.573 97.3334 431.523 108.733 431.53 123.9C431.53 141.293 424.797 155 411.33 165.02C397.863 175.04 378.723 180.05 353.91 180.05L353.91 180.05Z" transform="translate(199.28998 61.531967)" id="Shape" fill="#FFFFFF" fill-rule="evenodd" stroke="none" />
          <path d="M73.48 178.27C58.6399 178.27 45.7334 175.197 34.76 169.05C23.7866 162.903 15.2466 153.237 9.13989 140.05C3.04004 126.837 -0.0065918 109.837 0 89.05C0.0065918 68.2633 3.03003 51.35 9.07007 38.31C15.1099 25.1633 23.5898 15.4967 34.51 9.31001C45.4299 3.12334 58.4299 0.0200043 73.51 0C88.47 0 101.47 3.07668 112.51 9.23C123.55 15.3833 132.06 25.05 138.04 38.23C144.04 51.3767 147.04 68.29 147.04 88.97C147.04 109.75 143.993 126.717 137.9 139.87C131.807 153.023 123.247 162.707 112.22 168.92C101.24 175.16 88.3267 178.277 73.48 178.27L73.48 178.27ZM73.48 157.59C83.24 157.59 91.6733 155.47 98.78 151.23C105.887 146.99 111.373 139.887 115.24 129.92C119.113 119.92 121.047 106.4 121.04 89.36C121.04 72.18 119.08 58.5533 115.16 48.48C111.24 38.4067 105.727 31.2467 98.6199 27C91.5066 22.76 83.1267 20.64 73.48 20.64C63.7334 20.64 55.3066 22.7333 48.2 26.92C41.0933 31.1067 35.6033 38.1867 31.73 48.16C27.8633 58.16 25.9299 71.6267 25.9299 88.56C25.9299 105.84 27.8367 119.507 31.6499 129.56C35.4634 139.613 40.95 146.797 48.1099 151.11C55.2832 155.43 63.74 157.59 73.48 157.59L73.48 157.59L73.48 157.59Z" transform="translate(1333.23 62.991974)" id="Shape" fill="#FFFFFF" fill-rule="evenodd" stroke="none" />
          <path d="M51.68 129.762L51.68 40.682C55.4857 39.9446 59.3329 39.4403 63.2 39.172C67.0733 38.912 71.34 38.782 76 38.782C93.18 38.782 105.88 42.4486 114.1 49.782C122.32 57.1153 126.43 68.992 126.43 85.412C126.43 101.532 122.293 113.199 114.02 120.412C105.747 127.625 92.7467 131.232 75.02 131.232C70.5733 131.232 66.5433 131.099 62.93 130.832C60.26 130.642 57.41 130.352 54.56 130.072L54.56 169.372C57.41 169.472 60.26 169.572 62.93 169.722C66.54 169.942 70.41 170.042 74.54 170.042C108.373 170.042 133.823 162.832 150.89 148.412C167.957 133.992 176.493 112.889 176.5 85.102C176.5 55.522 167.727 33.942 150.18 20.362C132.633 6.78198 106.3 -0.00469208 71.18 0.000953674C58.8279 -0.0281906 46.4832 0.609406 34.2 1.91197C22.5333 3.18531 11.1333 4.93531 0 7.16197L0 238.242L51.7 238.242L51.7 129.762L51.68 129.762L51.68 129.762ZM805.39 98.032C798.87 85.3653 790.203 76.112 779.39 70.272C768.49 64.4198 756.291 61.4104 743.92 61.522C733.633 61.522 724.633 63.4586 716.92 67.332C709.429 71.0006 702.852 76.2962 697.67 82.832L695.2 82.832L692.02 64.222L649.55 64.222L649.55 308.222L700.2 308.222L700.2 114.652C703.83 110.676 708.355 107.622 713.4 105.742C718.381 103.853 723.663 102.884 728.99 102.882C735.427 102.75 741.796 104.225 747.52 107.172C752.853 110.045 756.99 115.045 759.93 122.172C762.87 129.299 764.327 139.189 764.3 151.842C764.3 170.182 760.633 183.279 753.3 191.132C745.967 198.985 734.99 202.912 720.37 202.912C716.834 202.905 713.301 202.692 709.79 202.272C707.33 201.992 705.15 201.702 703.09 201.412L703.09 240.412C705.33 240.622 707.53 240.842 709.95 241.022C713.39 241.292 716.87 241.422 720.37 241.422C741.15 241.422 758.593 237.815 772.7 230.602C786.422 223.772 797.577 212.702 804.51 199.032C811.637 185.192 815.2 168.152 815.2 147.912C815.2 127.332 811.93 110.705 805.39 98.032L805.39 98.032Z" id="Shape" fill="#FFFFFF" fill-rule="evenodd" stroke="none" />
          <path d="M25.8501 79.44L25.8501 79.44C26.1602 65.44 27.8501 53.97 31.0601 45.3C34.6067 35.7 39.6401 28.8333 46.1602 24.7C52.6802 20.5667 60.5 18.4967 69.6201 18.49C78.5334 18.49 86.1702 20.5867 92.53 24.78C98.8901 28.9733 103.717 35.84 107.01 45.38C110.01 54.12 111.58 65.78 111.83 80.05L28.75 80.05L28.75 97.55L136.27 97.55L136.27 89.6C136.27 69.1267 133.647 52.29 128.4 39.09C123.153 25.89 115.57 16.08 105.65 9.66C95.7834 3.22 83.8501 0 69.8501 0C55.5435 0 43.1667 3.20667 32.72 9.62C22.2734 16.0333 14.2034 25.8267 8.51001 39C2.83008 52.1467 -0.0065918 68.8133 0 89C0 110.1 3.07349 127.227 9.21997 140.38C15.3667 153.533 24.54 163.157 36.74 169.25C48.9268 175.35 63.9268 178.397 81.74 178.39C89.2441 178.382 96.7375 177.823 104.16 176.72C112.113 175.52 119.977 173.793 127.7 171.55L127.7 150.68C119.86 152.8 112.387 154.493 105.28 155.76C98.5105 157.005 91.6433 157.645 84.76 157.67C71.3867 157.67 60.3567 155.55 51.6702 151.31C42.9834 147.07 36.49 140.203 32.1902 130.71C28.4202 122.4 26.4102 111.52 25.9402 98.37L25.8501 79.44L25.8501 79.44Z" transform="translate(1177.3499 62.911972)" id="Shape" fill="#FFFFFF" fill-rule="evenodd" stroke="none" />
          <path d="M23.29 18.72L21.47 0L0 0L0 172.58L25.4399 172.58L25.4399 42.94L25.4399 42.94L23.29 18.72Z" transform="translate(1013.5201 65.66196)" id="Polygon" fill="#FFFFFF" fill-rule="evenodd" stroke="none" />
          <path d="M101.35 25.4018C96.5767 16.5018 90.03 10.0351 81.71 6.00176C73.3899 1.96843 63.7666 -0.0315704 52.8398 0.00175476C42.6946 -0.0669556 32.6365 1.88075 23.25 5.73177C14.5864 9.33104 6.69385 14.5588 0 21.1318L1.90991 42.4618C5.35547 38.5133 9.35742 35.0874 13.79 32.2918C18.9875 29.0129 24.6423 26.5225 30.5701 24.9018C35.905 23.4166 41.4124 22.64 46.95 22.5918C58.0898 22.5918 66.8933 25.5351 73.3599 31.4218C79.8267 37.3084 83.0601 47.6184 83.0601 62.3518L83.0601 175.242L108.47 175.242L108.47 61.1918C108.47 46.2451 106.097 34.3151 101.35 25.4018L101.35 25.4018Z" transform="translate(1039.73 63.000214)" id="Shape" fill="#FFFFFF" fill-rule="evenodd" stroke="none" />
          <path d="M50.8199 75.27C51 65.2 52.0499 56.99 54.0898 50.85C56.3232 44.1233 59.6366 39.3 64.0299 36.38C68.4233 33.46 73.8566 32 80.3298 32C86.6899 32 92.0232 33.4867 96.3298 36.46C100.637 39.4333 103.847 44.2567 105.96 50.93C107.88 57 108.89 65.18 109.07 75.27L53.9199 75.27L53.9199 104.42L156.39 104.42L156.39 91.22C156.39 71.4 153.5 54.7333 147.72 41.22C141.94 27.7067 133.447 17.44 122.24 10.42C111.047 3.48 97.2366 0.00666809 80.8099 0C63.6299 0 49.0499 3.44667 37.0699 10.34C25.0898 17.2333 15.9165 27.3867 9.54993 40.8C3.18323 54.22 0 70.5233 0 89.71C0 110.71 3.39661 127.89 10.1899 141.25C16.9833 154.61 27.4532 164.42 41.5999 170.68C55.7466 176.933 73.7466 180.06 95.5999 180.06C103.84 180.054 112.074 179.577 120.26 178.63C128.527 177.67 137.327 176.183 146.66 174.17L146.66 136.17C139.027 137.863 131.523 139.213 124.15 140.22C117.063 141.212 109.916 141.72 102.76 141.74C89.5 141.74 79.0798 140.36 71.5 137.6C63.9199 134.84 58.5667 130.28 55.4399 123.92C52.9299 118.82 51.4399 112.29 50.98 104.46L50.8199 75.27L50.8199 75.27Z" transform="translate(832.0201 61.491974)" id="Shape" fill="#FFFFFF" fill-rule="evenodd" stroke="none" />
        </g>
      </g>
    </g>
  </g>
</svg>