<svg width="74" height="33" viewBox="0 0 74 33" fill="none" xmlns="http://www.w3.org/2000/svg">
    <path d="M1.35902 0.600098V14.0629L11.3215 19.8001L0.799805 25.8894L12.4399 32.6001L23.5416 26.2001V13.4001L1.35902 0.600098Z" fill="#FEFEFE"/>
    <path d="M1.91821 25.8894L12.4399 31.9787V19.8208L1.91821 25.8894Z" fill="#ED3B7F"/>
    <path d="M1.91821 1.57349V13.7314L12.4399 7.6421L1.91821 1.57349Z" fill="#FCB832"/>
    <path d="M12.4399 7.64209L1.91821 13.7314L12.4399 19.8207V7.64209Z" fill="#F79420"/>
    <path d="M22.9823 25.8894V13.7314L12.4399 19.8208L22.9823 25.8894Z" fill="#7B1B66"/>
    <path d="M12.4399 19.8207L22.9823 13.7314L12.4399 7.64209V19.8207Z" fill="#F05A22"/>
    <path d="M22.9823 25.8894L12.4399 19.8208V31.9787L22.9823 25.8894Z" fill="#C30C41"/>
    <path d="M70.7441 26.1586H73.9545V24.0874V19.9864C73.9545 19.365 73.9545 13.8764 73.9545 13.8764V13.1929V12.0537C73.6024 12.1573 72.0283 12.5922 71.2205 13.545C70.8684 13.9178 70.7441 14.4356 70.7441 14.8913V24.3152V26.1586Z" fill="#EC1C24"/>
    <path d="M45.3719 12.116C41.188 12.116 37.9363 15.2642 37.9363 19.2823C37.9363 23.2797 41.1673 26.4072 45.3097 26.4072C49.4728 26.4072 52.766 23.2797 52.766 19.2616C52.766 15.2642 49.5143 12.116 45.3719 12.116ZM45.3719 23.6525C42.9693 23.6525 41.1466 21.7677 41.1466 19.2616C41.1466 16.7347 42.9485 14.8499 45.3097 14.8499C47.6916 14.8499 49.535 16.7969 49.535 19.2823C49.535 21.7677 47.7537 23.6525 45.3719 23.6525Z" fill="#EC1C24"/>
    <path d="M62.4801 12.1782C60.4917 12.1782 59.0004 12.9859 57.7577 14.6636C57.7577 14.0215 57.7577 8.53286 57.7577 8.53286V7.84936V6.71021C57.4056 6.81376 55.8522 7.24872 55.0237 8.20147C54.6924 8.55357 54.5474 9.09208 54.5474 9.54774V18.9717V20.9808V26.1587H57.7577C57.7577 26.1587 57.7577 24.6054 57.7577 24.1083C58.9176 25.6617 60.4917 26.4694 62.4801 26.4694C65.6283 26.4694 68.9836 23.9426 68.9836 19.2824C68.9836 14.6636 65.6283 12.1782 62.4801 12.1782ZM61.7551 23.7147C59.4768 23.7147 57.8405 21.8507 57.8405 19.2824C57.8405 16.7969 59.539 14.9121 61.7551 14.9121C64.0542 14.9121 65.7318 16.7555 65.7318 19.2824C65.7318 21.9335 64.137 23.7147 61.7551 23.7147Z" fill="#EC1C24"/>
    <path d="M29.3616 26.1586H32.5719V20.8149C32.5719 17.7495 34.1875 15.8233 37.0043 15.5747C37.3771 15.554 37.7913 15.4712 37.7913 14.8705V12.3023H37.3978C35.2645 12.3023 33.5661 13.4 32.5719 15.3055C32.5719 14.622 32.5719 12.0744 32.5719 12.0744V12.0537C32.2198 12.1573 30.6664 12.5922 29.8172 13.545C29.5065 13.8971 29.3616 14.4356 29.3616 14.8913V15.6783V26.1586Z" fill="#EC1C24"/>
</svg>
